<?xml version="1.0" encoding="UTF-8"?>
<svg xmlns="http://www.w3.org/2000/svg" xmlns:xlink="http://www.w3.org/1999/xlink" width="64px" height="64px" viewBox="0 0 64 64" version="1.1">
<defs>
<linearGradient id="linear0" gradientUnits="userSpaceOnUse" x1="0.3965" y1="55.252807" x2="98.808388" y2="55.252807" gradientTransform="matrix(0.209725,0,0,0.217004,10.666667,16.213333)">
<stop offset="0" style="stop-color:rgb(0%,82.352941%,90.196078%);stop-opacity:1;"/>
<stop offset="1" style="stop-color:rgb(18.039216%,80%,66.666667%);stop-opacity:1;"/>
</linearGradient>
<filter id="alpha" filterUnits="objectBoundingBox" x="0%" y="0%" width="100%" height="100%">
  <feColorMatrix type="matrix" in="SourceGraphic" values="0 0 0 0 1 0 0 0 0 1 0 0 0 0 1 0 0 0 1 0"/>
</filter>
<mask id="mask0">
  <g filter="url(#alpha)">
<rect x="0" y="0" width="64" height="64" style="fill:rgb(0%,0%,0%);fill-opacity:0.301961;stroke:none;"/>
  </g>
</mask>
<linearGradient id="linear1" gradientUnits="userSpaceOnUse" x1="49.0172" y1="137.88685" x2="99.792668" y2="113.96209" gradientTransform="matrix(0.24812,0,0,0.183424,10.666667,16.213333)">
<stop offset="0" style="stop-color:rgb(0%,0%,0%);stop-opacity:0;"/>
<stop offset="0.514125" style="stop-color:rgb(0%,0%,0%);stop-opacity:1;"/>
<stop offset="1" style="stop-color:rgb(0%,0%,0%);stop-opacity:0;"/>
</linearGradient>
<clipPath id="clip1">
  <rect x="0" y="0" width="64" height="64"/>
</clipPath>
<g id="surface5" clip-path="url(#clip1)">
<path style=" stroke:none;fill-rule:evenodd;fill:url(#linear1);" d="M 37.8125 40.023438 C 37.195312 40.019531 36.582031 39.894531 36.003906 39.644531 C 34.699219 39.074219 33.550781 38.003906 32.617188 36.550781 C 32.882812 36.078125 33.125 35.585938 33.339844 35.085938 C 33.621094 34.429688 33.859375 33.75 34.054688 33.0625 C 34.511719 31.460938 40.539062 33.492188 39.617188 36.125 C 39.144531 37.484375 38.542969 38.796875 37.8125 40.023438 Z M 30.492188 46.683594 C 27.414062 47.949219 23.832031 47.882812 20.777344 46.464844 C 17.261719 44.832031 20.875 39.359375 22.878906 40.496094 C 23.59375 40.898438 24.378906 41.160156 25.1875 41.257812 C 25.191406 41.265625 25.195312 41.269531 25.199219 41.273438 C 26.628906 43.503906 28.425781 45.359375 30.492188 46.683594 Z M 30.492188 46.683594 "/>
</g>
<linearGradient id="linear2" gradientUnits="userSpaceOnUse" x1="201.82208" y1="57.648954" x2="103.57667" y2="57.648954" gradientTransform="matrix(0.209725,0,0,0.217004,10.666667,16.213333)">
<stop offset="0" style="stop-color:rgb(12.156863%,63.921569%,52.156863%);stop-opacity:1;"/>
<stop offset="1" style="stop-color:rgb(18.039216%,80%,66.666667%);stop-opacity:1;"/>
</linearGradient>
</defs>
<g id="surface1">
<path style=" stroke:none;fill-rule:nonzero;fill:url(#linear0);" d="M 37.8125 40.023438 C 37.195312 40.019531 36.582031 39.894531 36.003906 39.640625 C 34.699219 39.074219 33.550781 38 32.617188 36.550781 C 32.882812 36.078125 33.125 35.585938 33.339844 35.085938 C 34.277344 32.902344 34.726562 30.507812 34.757812 28.132812 C 34.753906 28.085938 34.75 28.039062 34.746094 27.992188 L 34.746094 27.871094 C 34.742188 26.9375 34.601562 25.996094 34.28125 25.117188 C 33.910156 24.105469 33.324219 23.089844 32.390625 22.695312 C 32.21875 22.625 32.042969 22.59375 31.863281 22.597656 C 30.691406 20.402344 30.652344 18.300781 31.863281 16.296875 C 31.886719 16.296875 31.90625 16.296875 31.929688 16.296875 C 33.359375 16.3125 34.773438 16.753906 35.988281 17.523438 C 39.289062 19.621094 40.933594 23.710938 40.96875 27.726562 C 40.96875 27.773438 40.96875 27.820312 40.96875 27.867188 L 40.984375 27.867188 C 40.980469 32.109375 39.960938 36.410156 37.8125 40.023438 Z M 30.496094 46.683594 C 27.414062 47.949219 23.832031 47.882812 20.777344 46.464844 C 17.261719 44.832031 14.578125 41.660156 12.921875 38.042969 C 10.09375 31.851562 10.03125 24.449219 12.714844 18.164062 C 14.726562 18.96875 16.519531 17.683594 16.519531 17.683594 C 16.519531 17.683594 16.515625 19.660156 18.429688 20.652344 C 16.464844 25.25 16.511719 30.714844 18.480469 35.195312 C 19.425781 37.351562 20.875 39.359375 22.878906 40.496094 C 23.59375 40.898438 24.382812 41.160156 25.191406 41.257812 C 25.191406 41.265625 25.195312 41.269531 25.199219 41.273438 C 26.628906 43.503906 28.425781 45.359375 30.496094 46.683594 Z M 30.496094 46.683594 "/>
<use xlink:href="#surface5" mask="url(#mask0)"/>
<path style=" stroke:none;fill-rule:nonzero;fill:url(#linear2);" d="M 22.777344 27.867188 C 22.773438 27.820312 22.773438 27.773438 22.773438 27.726562 C 22.8125 23.710938 24.457031 19.621094 27.757812 17.523438 C 28.96875 16.753906 30.382812 16.3125 31.8125 16.296875 C 31.835938 16.296875 31.859375 16.296875 31.878906 16.296875 L 31.878906 22.597656 C 31.703125 22.59375 31.523438 22.625 31.355469 22.695312 C 30.421875 23.089844 29.832031 24.105469 29.460938 25.117188 C 29.140625 25.996094 29 26.9375 29 27.871094 L 28.996094 27.992188 C 28.992188 28.039062 28.988281 28.085938 28.984375 28.132812 C 29.019531 30.507812 29.464844 32.902344 30.40625 35.085938 C 31.457031 37.535156 33.128906 39.785156 35.492188 40.816406 C 37.273438 41.59375 39.25 41.410156 40.863281 40.496094 C 42.871094 39.359375 44.316406 37.351562 45.261719 35.195312 C 47.230469 30.714844 47.277344 25.25 45.316406 20.652344 C 47.226562 19.660156 47.222656 17.683594 47.222656 17.683594 C 47.222656 17.683594 49.015625 18.96875 51.03125 18.164062 C 53.714844 24.449219 53.648438 31.851562 50.820312 38.042969 C 49.164062 41.660156 46.480469 44.832031 42.964844 46.464844 C 39.835938 47.914062 36.15625 47.953125 33.027344 46.589844 C 30.210938 45.363281 27.921875 43.152344 26.277344 40.582031 C 23.890625 36.863281 22.761719 32.332031 22.757812 27.867188 Z M 22.777344 27.867188 "/>
</g>
</svg>
